# xmcd CD database file
#
# Track frame offsets:
#	150
#	24202
#	26922
#	48495
#	69677
#	91437
#	94002
#	114268
#	135672
#	157336
#	159766
#	181273
#	202158
#	219190
#
# Disc length: 3054 seconds
#
# Revision: 0
# Processed by: cddbd v1.5.1PL0 Copyright (c) Steve Scherf et al.
# Submitted via: CDex 1.51
#
DISCID=bb0bec0e
DTITLE=Helen Eriksen - Standards
DYEAR=1900
DGENRE=Jazz
TTITLE0=Holy Greed
TTITLE1=Loveskit #1
TTITLE2=Arms Around You
TTITLE3=Slaves
TTITLE4=Alone
TTITLE5=Loveskit #2
TTITLE6=City
TTITLE7=What is This Thing Called Love
TTITLE8=Low Rain in Pain
TTITLE9=Loveskit #3
TTITLE10=Cme Dme
TTITLE11=Shake My Hand
TTITLE12=The Do Don't Die (X-Tro)
TTITLE13=Hidden Track
EXTD=
EXTT0=
EXTT1=
EXTT2=
EXTT3=
EXTT4=
EXTT5=
EXTT6=
EXTT7=
EXTT8=
EXTT9=
EXTT10=
EXTT11=
EXTT12=
EXTT13=
PLAYORDER=
